<mxfile host="Electron" modified="2023-07-04T07:36:51.459Z" agent="Mozilla/5.0 (Macintosh; Intel Mac OS X 10_15_7) AppleWebKit/537.36 (KHTML, like Gecko) draw.io/21.4.0 Chrome/112.0.5615.204 Electron/24.5.1 Safari/537.36" etag="ffG5Lkd6djce-NP0qRdC" version="21.4.0" type="device" pages="2">
  <diagram name="Page-1" id="7ds3PLbDJ19wdKIWqpkI">
    <mxGraphModel dx="591" dy="394" grid="1" gridSize="10" guides="1" tooltips="1" connect="1" arrows="1" fold="1" page="1" pageScale="1" pageWidth="827" pageHeight="1169" math="0" shadow="0">
      <root>
        <mxCell id="0" />
        <mxCell id="1" parent="0" />
        <mxCell id="RWZw4yakLc_xA03lLoCq-3" style="edgeStyle=orthogonalEdgeStyle;rounded=0;orthogonalLoop=1;jettySize=auto;html=1;entryX=0.5;entryY=0;entryDx=0;entryDy=0;" edge="1" parent="1" source="RWZw4yakLc_xA03lLoCq-1" target="RWZw4yakLc_xA03lLoCq-2">
          <mxGeometry relative="1" as="geometry" />
        </mxCell>
        <mxCell id="RWZw4yakLc_xA03lLoCq-1" value="test-project" style="rounded=0;whiteSpace=wrap;html=1;" vertex="1" parent="1">
          <mxGeometry x="304" y="110" width="110" height="30" as="geometry" />
        </mxCell>
        <mxCell id="RWZw4yakLc_xA03lLoCq-15" style="edgeStyle=orthogonalEdgeStyle;rounded=0;orthogonalLoop=1;jettySize=auto;html=1;entryX=0.443;entryY=-0.014;entryDx=0;entryDy=0;entryPerimeter=0;" edge="1" parent="1" source="RWZw4yakLc_xA03lLoCq-2" target="RWZw4yakLc_xA03lLoCq-12">
          <mxGeometry relative="1" as="geometry">
            <Array as="points">
              <mxPoint x="359" y="230" />
              <mxPoint x="235" y="230" />
            </Array>
          </mxGeometry>
        </mxCell>
        <mxCell id="RWZw4yakLc_xA03lLoCq-16" style="edgeStyle=orthogonalEdgeStyle;rounded=0;orthogonalLoop=1;jettySize=auto;html=1;entryX=0.5;entryY=0;entryDx=0;entryDy=0;" edge="1" parent="1" source="RWZw4yakLc_xA03lLoCq-2" target="RWZw4yakLc_xA03lLoCq-13">
          <mxGeometry relative="1" as="geometry" />
        </mxCell>
        <mxCell id="RWZw4yakLc_xA03lLoCq-17" style="edgeStyle=orthogonalEdgeStyle;rounded=0;orthogonalLoop=1;jettySize=auto;html=1;entryX=0.5;entryY=0;entryDx=0;entryDy=0;" edge="1" parent="1" source="RWZw4yakLc_xA03lLoCq-2" target="RWZw4yakLc_xA03lLoCq-14">
          <mxGeometry relative="1" as="geometry">
            <Array as="points">
              <mxPoint x="359" y="230" />
              <mxPoint x="480" y="230" />
            </Array>
          </mxGeometry>
        </mxCell>
        <mxCell id="RWZw4yakLc_xA03lLoCq-2" value="main" style="rounded=0;whiteSpace=wrap;html=1;" vertex="1" parent="1">
          <mxGeometry x="304" y="170" width="110" height="30" as="geometry" />
        </mxCell>
        <mxCell id="RWZw4yakLc_xA03lLoCq-18" style="edgeStyle=orthogonalEdgeStyle;rounded=0;orthogonalLoop=1;jettySize=auto;html=1;entryX=0.473;entryY=1.113;entryDx=0;entryDy=0;entryPerimeter=0;" edge="1" parent="1" source="RWZw4yakLc_xA03lLoCq-4" target="RWZw4yakLc_xA03lLoCq-12">
          <mxGeometry relative="1" as="geometry" />
        </mxCell>
        <mxCell id="RWZw4yakLc_xA03lLoCq-4" value="developer1" style="shape=umlActor;verticalLabelPosition=bottom;verticalAlign=top;html=1;outlineConnect=0;" vertex="1" parent="1">
          <mxGeometry x="228" y="350" width="20" height="40" as="geometry" />
        </mxCell>
        <mxCell id="RWZw4yakLc_xA03lLoCq-19" style="edgeStyle=orthogonalEdgeStyle;rounded=0;orthogonalLoop=1;jettySize=auto;html=1;entryX=0.5;entryY=1;entryDx=0;entryDy=0;" edge="1" parent="1" source="RWZw4yakLc_xA03lLoCq-7" target="RWZw4yakLc_xA03lLoCq-13">
          <mxGeometry relative="1" as="geometry" />
        </mxCell>
        <mxCell id="RWZw4yakLc_xA03lLoCq-7" value="developer2" style="shape=umlActor;verticalLabelPosition=bottom;verticalAlign=top;html=1;outlineConnect=0;" vertex="1" parent="1">
          <mxGeometry x="349" y="350" width="20" height="40" as="geometry" />
        </mxCell>
        <mxCell id="RWZw4yakLc_xA03lLoCq-20" style="edgeStyle=orthogonalEdgeStyle;rounded=0;orthogonalLoop=1;jettySize=auto;html=1;entryX=0.496;entryY=1.113;entryDx=0;entryDy=0;entryPerimeter=0;" edge="1" parent="1" source="RWZw4yakLc_xA03lLoCq-8" target="RWZw4yakLc_xA03lLoCq-14">
          <mxGeometry relative="1" as="geometry" />
        </mxCell>
        <mxCell id="RWZw4yakLc_xA03lLoCq-8" value="developer3" style="shape=umlActor;verticalLabelPosition=bottom;verticalAlign=top;html=1;outlineConnect=0;" vertex="1" parent="1">
          <mxGeometry x="470" y="350" width="20" height="40" as="geometry" />
        </mxCell>
        <mxCell id="RWZw4yakLc_xA03lLoCq-12" value="dev1" style="rounded=0;whiteSpace=wrap;html=1;" vertex="1" parent="1">
          <mxGeometry x="200" y="280" width="80" height="30" as="geometry" />
        </mxCell>
        <mxCell id="RWZw4yakLc_xA03lLoCq-13" value="dev2" style="rounded=0;whiteSpace=wrap;html=1;" vertex="1" parent="1">
          <mxGeometry x="319" y="280" width="80" height="30" as="geometry" />
        </mxCell>
        <mxCell id="RWZw4yakLc_xA03lLoCq-14" value="dev3" style="rounded=0;whiteSpace=wrap;html=1;" vertex="1" parent="1">
          <mxGeometry x="440" y="280" width="80" height="30" as="geometry" />
        </mxCell>
      </root>
    </mxGraphModel>
  </diagram>
  <diagram id="havWwGyDmiorKvJ1xdvg" name="Page-2">
    <mxGraphModel dx="2069" dy="828" grid="1" gridSize="10" guides="1" tooltips="1" connect="1" arrows="1" fold="1" page="1" pageScale="1" pageWidth="827" pageHeight="1169" math="0" shadow="0">
      <root>
        <mxCell id="0" />
        <mxCell id="1" parent="0" />
        <mxCell id="oKIzzya4H1H6VOUKDaJY-6" style="edgeStyle=orthogonalEdgeStyle;rounded=0;orthogonalLoop=1;jettySize=auto;html=1;entryX=0;entryY=0.5;entryDx=0;entryDy=0;" edge="1" parent="1" source="oKIzzya4H1H6VOUKDaJY-1" target="oKIzzya4H1H6VOUKDaJY-4">
          <mxGeometry relative="1" as="geometry" />
        </mxCell>
        <mxCell id="oKIzzya4H1H6VOUKDaJY-10" style="edgeStyle=orthogonalEdgeStyle;rounded=0;orthogonalLoop=1;jettySize=auto;html=1;entryX=0.5;entryY=1;entryDx=0;entryDy=0;" edge="1" parent="1" source="oKIzzya4H1H6VOUKDaJY-1" target="oKIzzya4H1H6VOUKDaJY-9">
          <mxGeometry relative="1" as="geometry" />
        </mxCell>
        <mxCell id="oKIzzya4H1H6VOUKDaJY-1" value="79a2c5b" style="rounded=0;whiteSpace=wrap;html=1;fontStyle=1;fontSize=15;fillColor=#d5e8d4;strokeColor=#82b366;" vertex="1" parent="1">
          <mxGeometry x="384" y="1080" width="120" height="40" as="geometry" />
        </mxCell>
        <mxCell id="oKIzzya4H1H6VOUKDaJY-43" style="edgeStyle=orthogonalEdgeStyle;rounded=0;orthogonalLoop=1;jettySize=auto;html=1;entryX=0;entryY=0.5;entryDx=0;entryDy=0;" edge="1" parent="1" source="oKIzzya4H1H6VOUKDaJY-2" target="oKIzzya4H1H6VOUKDaJY-49">
          <mxGeometry relative="1" as="geometry" />
        </mxCell>
        <mxCell id="oKIzzya4H1H6VOUKDaJY-2" value="main" style="rounded=0;whiteSpace=wrap;html=1;fontStyle=1;fontSize=17;fillColor=#dae8fc;strokeColor=#6c8ebf;" vertex="1" parent="1">
          <mxGeometry x="160" y="420" width="120" height="40" as="geometry" />
        </mxCell>
        <mxCell id="oKIzzya4H1H6VOUKDaJY-4" value="clog(&quot;in main branch&quot;)" style="rounded=0;whiteSpace=wrap;html=1;" vertex="1" parent="1">
          <mxGeometry x="550" y="1080" width="180" height="40" as="geometry" />
        </mxCell>
        <mxCell id="oKIzzya4H1H6VOUKDaJY-5" value="file1.js" style="text;html=1;strokeColor=none;fillColor=none;align=left;verticalAlign=middle;whiteSpace=wrap;rounded=0;fontSize=11;" vertex="1" parent="1">
          <mxGeometry x="550" y="1120" width="60" height="20" as="geometry" />
        </mxCell>
        <mxCell id="oKIzzya4H1H6VOUKDaJY-55" style="edgeStyle=orthogonalEdgeStyle;rounded=0;orthogonalLoop=1;jettySize=auto;html=1;" edge="1" parent="1" source="oKIzzya4H1H6VOUKDaJY-7" target="oKIzzya4H1H6VOUKDaJY-2">
          <mxGeometry relative="1" as="geometry" />
        </mxCell>
        <mxCell id="oKIzzya4H1H6VOUKDaJY-7" value="HEAD" style="rounded=0;whiteSpace=wrap;html=1;fontStyle=1;fontSize=17;fillColor=#f8cecc;strokeColor=#b85450;" vertex="1" parent="1">
          <mxGeometry x="-10" y="420" width="100" height="40" as="geometry" />
        </mxCell>
        <mxCell id="oKIzzya4H1H6VOUKDaJY-13" style="edgeStyle=orthogonalEdgeStyle;rounded=0;orthogonalLoop=1;jettySize=auto;html=1;" edge="1" parent="1" source="oKIzzya4H1H6VOUKDaJY-9" target="oKIzzya4H1H6VOUKDaJY-11">
          <mxGeometry relative="1" as="geometry" />
        </mxCell>
        <mxCell id="oKIzzya4H1H6VOUKDaJY-22" style="edgeStyle=orthogonalEdgeStyle;rounded=0;orthogonalLoop=1;jettySize=auto;html=1;entryX=0.459;entryY=0.941;entryDx=0;entryDy=0;entryPerimeter=0;" edge="1" parent="1" source="oKIzzya4H1H6VOUKDaJY-9" target="oKIzzya4H1H6VOUKDaJY-19">
          <mxGeometry relative="1" as="geometry" />
        </mxCell>
        <mxCell id="oKIzzya4H1H6VOUKDaJY-9" value="5caa2ec" style="rounded=0;whiteSpace=wrap;html=1;fontStyle=1;fontSize=15;fillColor=#d5e8d4;strokeColor=#82b366;" vertex="1" parent="1">
          <mxGeometry x="384" y="1000" width="120" height="40" as="geometry" />
        </mxCell>
        <mxCell id="oKIzzya4H1H6VOUKDaJY-11" value="clog(&quot;in main branch line 1&quot;)&lt;br&gt;clog(&quot;in main branch line 2&quot;)" style="rounded=0;whiteSpace=wrap;html=1;" vertex="1" parent="1">
          <mxGeometry x="550" y="1000" width="180" height="40" as="geometry" />
        </mxCell>
        <mxCell id="oKIzzya4H1H6VOUKDaJY-12" value="file1.js" style="text;html=1;strokeColor=none;fillColor=none;align=left;verticalAlign=middle;whiteSpace=wrap;rounded=0;fontSize=11;" vertex="1" parent="1">
          <mxGeometry x="550" y="1040" width="60" height="20" as="geometry" />
        </mxCell>
        <mxCell id="oKIzzya4H1H6VOUKDaJY-18" style="edgeStyle=orthogonalEdgeStyle;rounded=0;orthogonalLoop=1;jettySize=auto;html=1;" edge="1" parent="1" source="oKIzzya4H1H6VOUKDaJY-19" target="oKIzzya4H1H6VOUKDaJY-20">
          <mxGeometry relative="1" as="geometry" />
        </mxCell>
        <mxCell id="oKIzzya4H1H6VOUKDaJY-30" style="edgeStyle=orthogonalEdgeStyle;rounded=0;orthogonalLoop=1;jettySize=auto;html=1;entryX=0.5;entryY=1;entryDx=0;entryDy=0;" edge="1" parent="1" source="oKIzzya4H1H6VOUKDaJY-19" target="oKIzzya4H1H6VOUKDaJY-25">
          <mxGeometry relative="1" as="geometry" />
        </mxCell>
        <mxCell id="oKIzzya4H1H6VOUKDaJY-19" value="75242cd" style="rounded=0;whiteSpace=wrap;html=1;fontStyle=1;fontSize=15;fillColor=#d5e8d4;strokeColor=#82b366;" vertex="1" parent="1">
          <mxGeometry x="388" y="918" width="120" height="40" as="geometry" />
        </mxCell>
        <mxCell id="oKIzzya4H1H6VOUKDaJY-20" value="clog(&quot;in main branch line 1&quot;)&lt;br&gt;clog(&quot;in main branch line 2&quot;)&lt;br&gt;clog(&quot;in b1 branch line 1&quot;)" style="rounded=0;whiteSpace=wrap;html=1;" vertex="1" parent="1">
          <mxGeometry x="554" y="908" width="180" height="60" as="geometry" />
        </mxCell>
        <mxCell id="oKIzzya4H1H6VOUKDaJY-21" value="file1.js" style="text;html=1;strokeColor=none;fillColor=none;align=left;verticalAlign=middle;whiteSpace=wrap;rounded=0;fontSize=11;" vertex="1" parent="1">
          <mxGeometry x="554" y="968" width="60" height="20" as="geometry" />
        </mxCell>
        <mxCell id="oKIzzya4H1H6VOUKDaJY-28" style="edgeStyle=orthogonalEdgeStyle;rounded=0;orthogonalLoop=1;jettySize=auto;html=1;entryX=0;entryY=0.5;entryDx=0;entryDy=0;" edge="1" parent="1" source="oKIzzya4H1H6VOUKDaJY-25" target="oKIzzya4H1H6VOUKDaJY-26">
          <mxGeometry relative="1" as="geometry" />
        </mxCell>
        <mxCell id="oKIzzya4H1H6VOUKDaJY-40" style="edgeStyle=orthogonalEdgeStyle;rounded=0;orthogonalLoop=1;jettySize=auto;html=1;" edge="1" parent="1" source="oKIzzya4H1H6VOUKDaJY-25" target="oKIzzya4H1H6VOUKDaJY-37">
          <mxGeometry relative="1" as="geometry" />
        </mxCell>
        <mxCell id="oKIzzya4H1H6VOUKDaJY-42" style="edgeStyle=orthogonalEdgeStyle;rounded=0;orthogonalLoop=1;jettySize=auto;html=1;" edge="1" parent="1" source="oKIzzya4H1H6VOUKDaJY-25" target="oKIzzya4H1H6VOUKDaJY-41">
          <mxGeometry relative="1" as="geometry" />
        </mxCell>
        <mxCell id="oKIzzya4H1H6VOUKDaJY-25" value="e036e46" style="rounded=0;whiteSpace=wrap;html=1;fontStyle=1;fontSize=15;fillColor=#d5e8d4;strokeColor=#82b366;" vertex="1" parent="1">
          <mxGeometry x="388" y="813" width="120" height="40" as="geometry" />
        </mxCell>
        <mxCell id="oKIzzya4H1H6VOUKDaJY-26" value="clog(&quot;in main branch line 1&quot;)&lt;br&gt;clog(&quot;in main branch line 2&quot;)&lt;br&gt;clog(&quot;in b1 branch line 1&quot;)&lt;br&gt;clog(&quot;in b1 branch line 2&quot;)" style="rounded=0;whiteSpace=wrap;html=1;" vertex="1" parent="1">
          <mxGeometry x="554" y="798" width="180" height="70" as="geometry" />
        </mxCell>
        <mxCell id="oKIzzya4H1H6VOUKDaJY-27" value="file1.js" style="text;html=1;strokeColor=none;fillColor=none;align=left;verticalAlign=middle;whiteSpace=wrap;rounded=0;fontSize=11;" vertex="1" parent="1">
          <mxGeometry x="554" y="868" width="60" height="20" as="geometry" />
        </mxCell>
        <mxCell id="oKIzzya4H1H6VOUKDaJY-36" style="edgeStyle=orthogonalEdgeStyle;rounded=0;orthogonalLoop=1;jettySize=auto;html=1;entryX=0;entryY=0.5;entryDx=0;entryDy=0;" edge="1" parent="1" source="oKIzzya4H1H6VOUKDaJY-37" target="oKIzzya4H1H6VOUKDaJY-38">
          <mxGeometry relative="1" as="geometry" />
        </mxCell>
        <mxCell id="oKIzzya4H1H6VOUKDaJY-51" style="edgeStyle=orthogonalEdgeStyle;rounded=0;orthogonalLoop=1;jettySize=auto;html=1;entryX=0.5;entryY=1;entryDx=0;entryDy=0;" edge="1" parent="1" source="oKIzzya4H1H6VOUKDaJY-37" target="oKIzzya4H1H6VOUKDaJY-49">
          <mxGeometry relative="1" as="geometry">
            <Array as="points">
              <mxPoint x="560" y="510" />
              <mxPoint x="448" y="510" />
            </Array>
          </mxGeometry>
        </mxCell>
        <mxCell id="oKIzzya4H1H6VOUKDaJY-37" value="6c65e04" style="rounded=0;whiteSpace=wrap;html=1;fontStyle=1;fontSize=15;fillColor=#d5e8d4;strokeColor=#82b366;" vertex="1" parent="1">
          <mxGeometry x="500" y="685" width="120" height="40" as="geometry" />
        </mxCell>
        <mxCell id="oKIzzya4H1H6VOUKDaJY-38" value="clog(&quot;in main branch line 1&quot;)&lt;br&gt;clog(&quot;in main branch line 2&quot;)&lt;br&gt;clog(&quot;in b1 branch line 1&quot;)&lt;br&gt;clog(&quot;in b1 branch line 2&quot;)&lt;br&gt;clog(&quot;in b2 branch line 1&quot;)&lt;br&gt;" style="rounded=0;whiteSpace=wrap;html=1;" vertex="1" parent="1">
          <mxGeometry x="666" y="660" width="180" height="90" as="geometry" />
        </mxCell>
        <mxCell id="oKIzzya4H1H6VOUKDaJY-39" value="file1.js" style="text;html=1;strokeColor=none;fillColor=none;align=left;verticalAlign=middle;whiteSpace=wrap;rounded=0;fontSize=11;" vertex="1" parent="1">
          <mxGeometry x="666" y="750" width="60" height="20" as="geometry" />
        </mxCell>
        <mxCell id="oKIzzya4H1H6VOUKDaJY-46" style="edgeStyle=orthogonalEdgeStyle;rounded=0;orthogonalLoop=1;jettySize=auto;html=1;" edge="1" parent="1" source="oKIzzya4H1H6VOUKDaJY-41" target="oKIzzya4H1H6VOUKDaJY-44">
          <mxGeometry relative="1" as="geometry" />
        </mxCell>
        <mxCell id="oKIzzya4H1H6VOUKDaJY-50" style="edgeStyle=orthogonalEdgeStyle;rounded=0;orthogonalLoop=1;jettySize=auto;html=1;" edge="1" parent="1" source="oKIzzya4H1H6VOUKDaJY-41" target="oKIzzya4H1H6VOUKDaJY-49">
          <mxGeometry relative="1" as="geometry" />
        </mxCell>
        <mxCell id="oKIzzya4H1H6VOUKDaJY-41" value="212f25d" style="rounded=0;whiteSpace=wrap;html=1;fontStyle=1;fontSize=15;fillColor=#d5e8d4;strokeColor=#82b366;" vertex="1" parent="1">
          <mxGeometry x="388" y="555" width="120" height="40" as="geometry" />
        </mxCell>
        <mxCell id="oKIzzya4H1H6VOUKDaJY-44" value="clog(&quot;in main branch line 1&quot;)&lt;br&gt;clog(&quot;in main branch line 2&quot;)&lt;br&gt;clog(&quot;in b1 branch line 1&quot;)&lt;br&gt;clog(&quot;in b1 branch line 2&quot;)" style="rounded=0;whiteSpace=wrap;html=1;" vertex="1" parent="1">
          <mxGeometry x="666" y="540" width="180" height="70" as="geometry" />
        </mxCell>
        <mxCell id="oKIzzya4H1H6VOUKDaJY-45" value="file1.js" style="text;html=1;strokeColor=none;fillColor=none;align=left;verticalAlign=middle;whiteSpace=wrap;rounded=0;fontSize=11;" vertex="1" parent="1">
          <mxGeometry x="666" y="610" width="60" height="20" as="geometry" />
        </mxCell>
        <mxCell id="oKIzzya4H1H6VOUKDaJY-47" value="clog(&quot;file2 added in main branch&lt;span style=&quot;background-color: initial;&quot;&gt;&quot;)&lt;/span&gt;&lt;br&gt;" style="rounded=0;whiteSpace=wrap;html=1;" vertex="1" parent="1">
          <mxGeometry x="862" y="540" width="180" height="70" as="geometry" />
        </mxCell>
        <mxCell id="oKIzzya4H1H6VOUKDaJY-48" value="file2.js" style="text;html=1;strokeColor=none;fillColor=none;align=left;verticalAlign=middle;whiteSpace=wrap;rounded=0;fontSize=11;" vertex="1" parent="1">
          <mxGeometry x="862" y="610" width="60" height="20" as="geometry" />
        </mxCell>
        <mxCell id="oKIzzya4H1H6VOUKDaJY-49" value="eacc2bb" style="rounded=0;whiteSpace=wrap;html=1;fontStyle=1;fontSize=15;fillColor=#a20025;strokeColor=#6F0000;fontColor=#ffffff;" vertex="1" parent="1">
          <mxGeometry x="388" y="420" width="120" height="40" as="geometry" />
        </mxCell>
        <mxCell id="oKIzzya4H1H6VOUKDaJY-54" value="" style="edgeStyle=orthogonalEdgeStyle;rounded=0;orthogonalLoop=1;jettySize=auto;html=1;entryX=0;entryY=0.5;entryDx=0;entryDy=0;" edge="1" parent="1" source="oKIzzya4H1H6VOUKDaJY-53" target="oKIzzya4H1H6VOUKDaJY-19">
          <mxGeometry x="0.0015" relative="1" as="geometry">
            <mxPoint x="338" y="968" as="targetPoint" />
            <mxPoint as="offset" />
          </mxGeometry>
        </mxCell>
        <mxCell id="oKIzzya4H1H6VOUKDaJY-53" value="b3" style="rounded=0;whiteSpace=wrap;html=1;fontStyle=1;fontSize=17;fillColor=#dae8fc;strokeColor=#6c8ebf;" vertex="1" parent="1">
          <mxGeometry x="170" y="918" width="120" height="40" as="geometry" />
        </mxCell>
      </root>
    </mxGraphModel>
  </diagram>
</mxfile>
